<svg id="Слой_1" height="512" viewBox="0 0 512 512" width="512" xmlns="http://www.w3.org/2000/svg" data-name="Слой 1"><path d="m203.24 464.58a3 3 0 0 1 -2.83-2.1c-39.69-129.08-41.72-262.48-36.41-351.59a3 3 0 1 1 5.92.35c-5.25 88.66-3.24 221.26 36.18 349.51a3 3 0 0 1 -2.84 3.84z"/><path d="m342.18 414.13a3 3 0 0 1 -2.89-3.62c25.51-112 25.74-221.82 21.45-294.22a3 3 0 1 1 5.92-.35c4.31 72.79 4.07 183.22-21.59 295.89a3 3 0 0 1 -2.89 2.3z"/><path d="m242.61 432a3 3 0 0 1 -3-2.92c-1.2-82.56 4.61-162.4 17.28-237.28a3 3 0 0 1 5.85 1c-12.6 74.53-18.39 154-17.2 236.21a3 3 0 0 1 -2.92 3z"/><path d="m164.88 176a3 3 0 0 1 -3-2.89c-.88-34.46 12.56-44.12 16.7-46.26 4.48-2.32 9.21-2.16 12.66.42 3.89 2.91 5.42 8.17 4.22 14.45-4.32 22.44-28.36 33.56-29.39 34a3 3 0 0 1 -1.19.28zm20.05-44.86a7.93 7.93 0 0 0 -3.6 1c-6.46 3.34-13.13 14.51-13.51 35.94 6.63-4 19.12-13.3 21.84-27.45.75-3.9 0-7.11-1.94-8.58a4.58 4.58 0 0 0 -2.79-.89z"/><path d="m167.7 258.39a3 3 0 0 1 -3-2.89c-.88-34.46 12.56-44.12 16.7-46.26 4.48-2.32 9.21-2.16 12.66.42 3.89 2.91 5.42 8.17 4.22 14.45-4.32 22.44-28.36 33.56-29.39 34a3 3 0 0 1 -1.19.28zm20.05-44.86a7.93 7.93 0 0 0 -3.6 1c-6.45 3.31-13.15 14.47-13.5 35.91 6.63-4 19.12-13.3 21.84-27.45.75-3.9 0-7.11-1.94-8.58a4.58 4.58 0 0 0 -2.79-.89z"/><path d="m246.64 312.49a3 3 0 0 1 -3-2.89c-.87-34.46 12.57-44.12 16.71-46.26 4.48-2.31 9.21-2.16 12.66.42 3.89 2.91 5.42 8.17 4.21 14.45-4.32 22.44-28.38 33.55-29.4 34a3 3 0 0 1 -1.18.28zm20.06-44.85a7.93 7.93 0 0 0 -3.59 1c-6.46 3.34-13.14 14.51-13.52 35.93 6.63-4 19.12-13.3 21.85-27.45.75-3.9 0-7.11-1.94-8.58a4.58 4.58 0 0 0 -2.79-.9z"/><path d="m164.46 176.56a3 3 0 0 1 -1.47-.39c-1-.56-23.89-13.85-26.11-36.6-.62-6.36 1.4-11.47 5.54-14 3.67-2.25 8.4-2 12.64.76 3.92 2.51 16.41 13.38 12.33 47.61a3 3 0 0 1 -2.94 2.61zm-16.58-46.56a4.45 4.45 0 0 0 -2.35.64c-2.1 1.28-3.12 4.41-2.73 8.36 1.4 14.34 13 24.74 19.2 29.36 1.61-21.37-4-33.11-10.12-37a7.54 7.54 0 0 0 -4-1.36z"/><path d="m166.09 119.8a3 3 0 0 1 -1.47-.39c-1-.56-23.89-13.85-26.11-36.6-.62-6.36 1.4-11.47 5.54-14 3.67-2.25 8.4-2 12.64.76 3.93 2.52 16.41 13.43 12.31 47.61a3 3 0 0 1 -2.94 2.61zm-16.59-46.56a4.45 4.45 0 0 0 -2.35.64c-2.1 1.28-3.12 4.41-2.73 8.36 1.4 14.34 13 24.74 19.2 29.36 1.61-21.37-4-33.11-10.12-37a7.54 7.54 0 0 0 -4-1.36z"/><path d="m168.08 83.67a3 3 0 0 1 -1.54-.43c-1-.58-23.48-14.53-25.06-37.32-.44-6.38 1.72-11.42 5.93-13.84 3.74-2.14 8.45-1.73 12.62 1.12 3.85 2.63 16 13.84 11 47.94a3 3 0 0 1 -2.93 2.53zm-15.49-47a4.42 4.42 0 0 0 -2.22.57c-2.13 1.22-3.24 4.32-3 8.28 1 14.38 12.26 25.1 18.36 29.89 2.22-21.32-3.06-33.21-9.07-37.31a7.42 7.42 0 0 0 -4.06-1.45z"/><path d="m167.39 258.52a3 3 0 0 1 -.58-.06c-1.1-.22-27-5.61-36.31-26.5-2.6-5.84-2.29-11.32.84-15 2.78-3.29 7.35-4.51 12.24-3.27 4.52 1.15 19.79 7.53 26.72 41.29a3 3 0 0 1 -2.9 3.56zm-27.52-39.41a5 5 0 0 0 -4 1.65c-1.58 1.88-1.57 5.17 0 8.8 5.92 13.22 20.13 19.44 27.53 21.82-5.21-20.79-14.24-30.17-21.29-32a9.15 9.15 0 0 0 -2.24-.26z"/><path d="m166 125.55a3 3 0 0 1 -3-2.89c-.88-34.46 12.56-44.12 16.7-46.26 4.48-2.32 9.21-2.16 12.66.42 3.89 2.91 5.43 8.17 4.22 14.45-4.32 22.44-28.36 33.56-29.39 34a3 3 0 0 1 -1.19.28zm20.05-44.86a7.93 7.93 0 0 0 -3.6 1c-6.45 3.31-13.09 14.48-13.45 35.91 6.63-4 19.12-13.3 21.84-27.45.75-3.9 0-7.11-1.94-8.58a4.58 4.58 0 0 0 -2.81-.88z"/><path d="m168.7 89.09a3 3 0 0 1 -3-2.89c-.88-34.46 12.56-44.12 16.7-46.26 4.48-2.32 9.21-2.16 12.66.42 3.89 2.91 5.42 8.17 4.22 14.45-4.32 22.44-28.36 33.56-29.39 34a3 3 0 0 1 -1.19.28zm20.05-44.86a7.93 7.93 0 0 0 -3.6 1c-6.45 3.31-13.15 14.48-13.51 35.91 6.63-4 19.12-13.3 21.84-27.45.75-3.9 0-7.11-1.94-8.58a4.58 4.58 0 0 0 -2.79-.89z"/><path d="m172.31 52.48a3 3 0 0 1 -2.94-2.62c-4.06-34.23 8.42-45.09 12.34-47.61 4.24-2.72 9-3 12.64-.75 4.14 2.53 6.16 7.64 5.54 14-2.22 22.74-25.14 36-26.11 36.59a3 3 0 0 1 -1.47.39zm16.59-46.54a7.54 7.54 0 0 0 -4 1.33c-6.12 3.92-11.74 15.66-10.13 37 6.23-4.62 17.81-15 19.21-29.36.39-4-.63-7.08-2.73-8.36a4.45 4.45 0 0 0 -2.35-.62z"/><path d="m207.61 291.58c-7.6 0-19.51-1.39-29-8.78-8.2-6.37-12.93-15.9-14.06-28.3a3 3 0 0 1 1.93-3.05 36.65 36.65 0 0 1 27.42 2.1c11 5.62 18.95 17 23.67 33.8a3 3 0 0 1 -2.39 3.73 51.68 51.68 0 0 1 -7.57.5zm-36.89-35.17c1.33 9.5 5.19 16.8 11.51 21.71 9.58 7.45 22.5 7.76 28.57 7.43-4.31-13.27-10.9-22.25-19.63-26.72a30.8 30.8 0 0 0 -20.45-2.42z"/><path d="m126.85 299.65a3 3 0 0 1 -3-3.2c1.4-17.4 7-30.1 16.72-37.72a36.65 36.65 0 0 1 26.5-7.33 3 3 0 0 1 2.53 2.6c1.28 12.39-1.54 22.64-8.35 30.48-12.39 14.22-33.4 15.13-34.29 15.16zm36.37-42.57a30.86 30.86 0 0 0 -19 6.36c-7.66 6.06-12.38 16.12-14.05 29.93 6-.85 18.7-3.66 26.64-12.8 5.24-6 7.62-13.92 7.1-23.48z"/><path d="m365.76 181.06a3 3 0 0 1 -1.22-.26c-1-.46-25.07-11.58-29.39-34-1.21-6.28.33-11.55 4.22-14.45 3.45-2.58 8.18-2.73 12.66-.42 4.14 2.14 17.58 11.8 16.7 46.26a3 3 0 0 1 -3 2.89zm-20.06-44.86a4.58 4.58 0 0 0 -2.79.88c-2 1.47-2.69 4.68-1.94 8.58 2.73 14.2 15.21 23.46 21.84 27.46-.38-21.43-7.05-32.61-13.51-35.95a7.93 7.93 0 0 0 -3.6-.97z"/><path d="m362.93 263.43a3 3 0 0 1 -1.22-.26c-1-.46-25.07-11.58-29.39-34-1.21-6.28.33-11.55 4.22-14.45 3.45-2.58 8.18-2.73 12.66-.42 4.14 2.14 17.58 11.8 16.7 46.26a3 3 0 0 1 -3 2.89zm-20.05-44.86a4.58 4.58 0 0 0 -2.79.88c-2 1.47-2.69 4.68-1.94 8.58 2.73 14.2 15.21 23.46 21.84 27.46-.38-21.43-7.05-32.61-13.51-35.95a7.93 7.93 0 0 0 -3.6-.97z"/><path d="m366.17 181.6a3 3 0 0 1 -2.94-2.61c-4.07-34.23 8.41-45.1 12.33-47.61 4.25-2.72 9-3 12.65-.76 4.14 2.53 6.16 7.64 5.54 14-2.22 22.74-25.13 36-26.11 36.6a3 3 0 0 1 -1.47.38zm16.58-46.6a7.53 7.53 0 0 0 -4 1.33c-6.12 3.92-11.73 15.67-10.12 37 6.23-4.62 17.8-15 19.2-29.36.39-4-.64-7.08-2.73-8.36a4.45 4.45 0 0 0 -2.35-.61z"/><path d="m364.55 124.84a3 3 0 0 1 -2.94-2.61c-4.08-34.23 8.39-45.1 12.33-47.62 4.24-2.72 9-3 12.64-.76 4.14 2.53 6.16 7.64 5.54 14-2.22 22.74-25.13 36-26.11 36.6a3 3 0 0 1 -1.46.39zm16.59-46.56a7.53 7.53 0 0 0 -4 1.33c-6.12 3.92-11.73 15.66-10.12 37 6.23-4.62 17.8-15 19.2-29.36.39-4-.64-7.08-2.73-8.36a4.45 4.45 0 0 0 -2.36-.61z"/><path d="m362.55 88.71a3 3 0 0 1 -2.93-2.53c-5-34.1 7.13-45.32 11-47.94 4.17-2.84 8.88-3.26 12.62-1.12 4.21 2.41 6.37 7.46 5.93 13.84-1.57 22.8-24.1 36.74-25.06 37.32a3 3 0 0 1 -1.56.43zm15.49-47a7.42 7.42 0 0 0 -4.1 1.44c-6 4.1-11.28 16-9.07 37.31 6.1-4.79 17.37-15.52 18.36-29.89.27-4-.84-7.06-3-8.28a4.42 4.42 0 0 0 -2.23-.6z"/><path d="m363.24 263.57a3 3 0 0 1 -2.9-3.56c6.93-33.77 22.2-40.14 26.72-41.29 4.89-1.24 9.46 0 12.24 3.27 3.13 3.71 3.44 9.19.84 15-9.28 20.88-35.21 26.28-36.31 26.5a3 3 0 0 1 -.59.08zm27.52-39.41a9.13 9.13 0 0 0 -2.25.3c-7 1.79-16.07 11.17-21.28 32 7.37-2.42 21.63-8.64 27.48-21.81 1.61-3.63 1.63-6.92 0-8.8a5 5 0 0 0 -3.95-1.69z"/><path d="m364.59 130.59a3 3 0 0 1 -1.22-.26c-1-.46-25.07-11.58-29.39-34-1.21-6.28.33-11.55 4.22-14.45 3.45-2.58 8.18-2.73 12.66-.42 4.14 2.14 17.58 11.8 16.7 46.26a3 3 0 0 1 -3 2.89zm-20.05-44.86a4.58 4.58 0 0 0 -2.79.88c-2 1.47-2.69 4.68-1.94 8.58 2.72 14.15 15.21 23.43 21.84 27.45-.38-21.43-7.05-32.6-13.51-35.94a7.93 7.93 0 0 0 -3.6-.97z"/><path d="m361.93 94.13a3 3 0 0 1 -1.22-.26c-1-.46-25.07-11.58-29.39-34-1.21-6.28.33-11.55 4.22-14.45 3.45-2.58 8.18-2.73 12.66-.42 4.14 2.14 17.58 11.8 16.7 46.26a3 3 0 0 1 -3 2.89zm-20.05-44.86a4.58 4.58 0 0 0 -2.79.88c-2 1.47-2.69 4.68-1.94 8.58 2.72 14.15 15.21 23.43 21.84 27.45-.38-21.43-7.05-32.6-13.51-35.94a7.93 7.93 0 0 0 -3.6-.97z"/><path d="m358.32 57.53a3 3 0 0 1 -1.47-.39c-1-.55-23.89-13.85-26.11-36.59-.62-6.36 1.4-11.47 5.54-14 3.67-2.25 8.4-2 12.64.75 3.92 2.51 16.41 13.38 12.34 47.61a3 3 0 0 1 -2.94 2.62zm-16.59-46.53a4.45 4.45 0 0 0 -2.36.64c-2.1 1.28-3.12 4.41-2.73 8.36 1.4 14.34 13 24.74 19.21 29.36 1.61-21.37-4-33.11-10.13-37a7.54 7.54 0 0 0 -3.99-1.36z"/><path d="m323 296.62a51.66 51.66 0 0 1 -7.55-.5 3 3 0 0 1 -2.39-3.73c4.72-16.81 12.68-28.19 23.67-33.8a36.66 36.66 0 0 1 27.42-2.1 3 3 0 0 1 1.93 3.05c-1.13 12.4-5.86 21.93-14.06 28.3-9.49 7.39-21.4 8.78-29.02 8.78zm-3.19-6c6.08.33 19.05 0 28.6-7.44 6.3-4.91 10.15-12.19 11.48-21.68a31 31 0 0 0 -20.54 2.45c-8.66 4.44-15.23 13.4-19.52 26.63z"/><path d="m403.79 304.69h-.1c-.89 0-21.91-.93-34.29-15.16-6.82-7.83-9.63-18.09-8.35-30.48a3 3 0 0 1 2.48-2.62 36.65 36.65 0 0 1 26.5 7.33c9.7 7.63 15.33 20.32 16.72 37.72a3 3 0 0 1 -3 3.2zm-37-42.56c-.52 9.58 1.87 17.47 7.12 23.51 8 9.15 20.59 11.95 26.61 12.78-1.67-13.81-6.39-23.87-14.05-29.94a31 31 0 0 0 -19.73-6.35z"/><path d="m251.09 256.66a3 3 0 0 1 -3-3.21c2.85-34.35 17.25-42.51 21.6-44.19 4.7-1.82 9.39-1.15 12.54 1.79 3.55 3.31 4.51 8.71 2.63 14.82-6.72 21.84-31.83 30.29-32.89 30.64a3 3 0 0 1 -.88.15zm23.81-42.48a8.46 8.46 0 0 0 -3 .62c-6.78 2.62-14.63 13-17.32 34.26 7-3.28 20.45-11.16 24.68-24.93 1.17-3.8.79-7.07-1-8.74a4.77 4.77 0 0 0 -3.36-1.21z"/><path d="m250.63 257.15a3 3 0 0 1 -1.74-.56c-.91-.66-22.25-16.35-22-39.2.07-6.39 2.63-11.25 7-13.32 3.9-1.84 8.56-1 12.49 2.12 3.63 2.92 14.86 15.08 7.11 48.67a3 3 0 0 1 -2.89 2.3zm-12.32-48.15a4.35 4.35 0 0 0 -1.87.41c-2.22 1-3.57 4-3.62 8-.16 14.41 10.22 26 15.91 31.27 3.91-21.07-.4-33.35-6.06-37.91a7.13 7.13 0 0 0 -4.36-1.77z"/><path d="m258.37 200.9a3 3 0 0 1 -1.74-.56c-.91-.66-22.25-16.35-22-39.2.07-6.39 2.63-11.25 7-13.32 3.89-1.84 8.56-1 12.49 2.12 3.63 2.92 14.86 15.08 7.11 48.67a3 3 0 0 1 -2.89 2.3zm-12.31-48.13a4.35 4.35 0 0 0 -1.87.41c-2.22 1-3.58 4-3.62 8-.16 14.46 10.22 26 15.91 31.28 3.91-21.07-.39-33.36-6.06-37.92a7.13 7.13 0 0 0 -4.36-1.77z"/><path d="m264.27 165.19a3 3 0 0 1 -1.81-.61c-.89-.68-21.78-17-20.87-39.81.25-6.39 2.95-11.17 7.4-13.11 3.95-1.73 8.59-.8 12.42 2.47 3.54 3 14.43 15.49 5.73 48.85a3 3 0 0 1 -2.87 2.22zm-11.16-48.46a4.32 4.32 0 0 0 -1.75.36c-2.25 1-3.69 3.94-3.85 7.91-.57 14.45 9.47 26.31 15 31.71 4.51-21 .55-33.36-5-38.08a7 7 0 0 0 -4.4-1.9z"/><path d="m257.7 206.6a3 3 0 0 1 -3-3.21c2.85-34.35 17.25-42.51 21.6-44.19 4.7-1.82 9.39-1.15 12.54 1.79 3.55 3.31 4.51 8.71 2.63 14.82-6.72 21.84-31.83 30.29-32.89 30.64a3 3 0 0 1 -.88.15zm23.81-42.48a8.46 8.46 0 0 0 -3 .62c-6.78 2.62-14.63 13-17.32 34.26 7-3.28 20.45-11.16 24.68-24.93 1.17-3.8.79-7.07-1-8.74a4.77 4.77 0 0 0 -3.36-1.21z"/><path d="m264.3 170.65a3 3 0 0 1 -3-3.21c2.85-34.35 17.25-42.51 21.6-44.19 4.7-1.82 9.39-1.15 12.54 1.79 3.55 3.31 4.51 8.71 2.63 14.82-6.72 21.84-31.83 30.29-32.89 30.64a3 3 0 0 1 -.88.15zm23.81-42.48a8.46 8.46 0 0 0 -3 .62c-6.78 2.62-14.63 13-17.32 34.26 7-3.28 20.45-11.16 24.68-24.93 1.17-3.8.79-7.07-1-8.74a4.77 4.77 0 0 0 -3.37-1.22z"/><path d="m271.84 134.65a3 3 0 0 1 -3-2.94c-.34-34.47 13.25-43.92 17.42-46 4.51-2.24 9.24-2 12.65.62 3.84 3 5.3 8.26 4 14.52-4.64 22.37-28.91 33.15-29.91 33.56a3 3 0 0 1 -1.16.24zm20.62-44.54a8 8 0 0 0 -3.52.92c-6.51 3.24-13.36 14.3-14.08 35.72 6.7-3.92 19.33-13 22.27-27.11.81-3.89.14-7.11-1.81-8.61a4.6 4.6 0 0 0 -2.86-.92z"/><path d="m246.47 512a3 3 0 0 1 -.55-.05c-1.24-.23-30.8-5.93-68.7-26.65a289.33 289.33 0 0 1 -117.15-118.3 3 3 0 0 1 3.82-4.1c.28.12 28.36 12.7 65 36.65 33.79 22.11 82 58.74 120 107.69a3 3 0 0 1 -2.34 4.78zm-176.72-139.73a283.72 283.72 0 0 0 110.32 107.83 275.2 275.2 0 0 0 58.73 24c-59.89-73.67-142.8-118.75-169.05-131.83z"/><path d="m246.47 512a3 3 0 0 1 -2.45-4.64c.21-.3 21-30.63 56.43-64.49 32.71-31.3 85-72.17 148.09-89.12a3 3 0 0 1 3.09 4.71c-.4.5-40.31 50.63-89.34 93a3 3 0 1 1 -3.88-4.49c37.53-32.44 69.66-69.45 82.55-84.88-57.79 17.93-105.71 55.68-136.31 84.94a477 477 0 0 0 -52.14 58.65 92.69 92.69 0 0 0 17.79-3.68 3 3 0 1 1 1.74 5.67 92 92 0 0 1 -25.53 4.33z"/><path d="m283.57 508.3q-6.25 0-12.64-.5a3 3 0 0 1 -1.94-5c.71-.77 17.69-19.07 46-36.12 26.22-15.78 67.37-33.22 114.54-26.74a3 3 0 0 1 1.67 5.06c-.73.71-18.23 17.69-46.79 34-23.96 13.82-60.05 29.3-100.84 29.3zm-5.63-6c69.5 2.56 127.67-42.75 144.34-57.16-42.76-3.9-80 12.13-104.21 26.68a235.18 235.18 0 0 0 -40.13 30.45z"/><path d="m246.07 512a3 3 0 0 1 -2.32-1.12c-.46-.58-11.35-14.41-21.82-41.71-9.62-25.06-20.63-66.7-18.49-122.75a3 3 0 0 1 5.34-1.66c.55.74 13.7 18.57 25.34 47.87 10.74 27 22 69.28 14.88 116.84a3 3 0 0 1 -2.93 2.52zm-36.94-156c-.63 50.19 9.4 87.68 18.23 110.77a194 194 0 0 0 16.77 34.23c4.75-43.06-5.59-81.1-15.45-106a246.26 246.26 0 0 0 -19.55-39z"/></svg>