<svg id="Capa_1" enable-background="new 0 0 64 64" height="512" viewBox="0 0 64 64" width="512" xmlns="http://www.w3.org/2000/svg"><g id="_21-Skull"><path d="m16 50c-4.321-.144-8.563-1.201-12.447-3.1l.894-1.79c3.488 1.686 7.276 2.665 11.144 2.882 2.59-2.715 4.149-6.249 4.409-9.992h2c-.248 4.424-2.135 8.598-5.293 11.707-.187.188-.442.293-.707.293z"/><path d="m28 44c-3.158 0-4-3.771-4-6h2c0 .04.066 4 2 4 1.038.066 1.934-.721 2-1.76.005-.083.005-.166 0-.248l2 .008c.063 2.146-1.626 3.937-3.773 4-.075.002-.151.002-.227 0z"/><path d="m20 58c-2.584 0-20-2.351-20-6 0-1.912 1.975-4.9 2.866-6.143l-1.8-4.486c-.121-.306-.084-.653.1-.926l2-3c.063-.094.143-.177.234-.245l4-3c.173-.13.384-.2.6-.2 1.038.066 1.934-.722 2-1.76.005-.08.005-.16 0-.24.113-1.225-.445-2.416-1.46-3.112-.328-.176-.535-.516-.54-.888v-3c0-.552.448-1 1-1 .95 0 3.37-1.819 5.144-3.56.519-1.329 3.393-8.34 7.256-11.24l.652-.494c3.548-2.706 3.84-2.706 18.948-2.706 17.008 0 23 18.116 23 22-.071 1.734-.501 3.434-1.265 4.993-1.16 2.509-1.752 5.243-1.735 8.007 0 10.016-7.626 16-15 16-7.906 0-11.485-3.677-12.525-5.014-2.037.053-3.934-1.033-4.921-2.816-.273.194-.511.353-.694.472-.508 1.732-2.784 8.358-7.86 8.358zm-17.991-6.155c1.381 1.447 13.018 4.155 17.991 4.155 4.1 0 6.012-7.17 6.03-7.242.064-.257.228-.478.455-.615.526-.325 1.032-.682 1.515-1.067.032-.026.1-.076.1-.076 1.358-1.087 2.9-2.654 2.9-4 0-1.841-.857-1.989-1.029-2-.117-.007-.232-.031-.343-.07l-4.82-1.93h-7.808c-.552 0-1-.448-1-1 0-1.632-.5-5-2-5h-2.1c-.39 1.669-1.831 2.883-3.542 2.983l-3.621 2.717-1.613 2.42 1.805 4.512c.128.323.079.69-.129.968-1.113 1.485-2.661 4.024-2.791 5.245zm28.166-3.971c.325.895 1.236 2.126 3.825 2.126.351 0 .676.184.857.485.111.179 2.885 4.515 11.143 4.515 8.137 0 13-7.118 13-14-.017-3.025.627-6.017 1.886-8.768.66-1.319 1.039-2.76 1.114-4.232 0-3.393-5.719-20-21-20-14.721 0-14.721 0-17.735 2.3l-.665.5c-3.717 2.788-6.635 10.474-6.664 10.552-.05.133-.128.254-.229.355-.62.62-3.463 3.376-5.707 4.112v1.655c1.078.879 1.772 2.144 1.932 3.526h2.068c3.112 0 3.805 4.025 3.958 6h7.042c.127 0 .254.024.372.071l4.851 1.941c1.131.488 2.777 1.038 2.777 3.988 0 1.862-1.422 3.606-2.825 4.874z"/><path d="m16.3 30.116c-.503.003-1.005-.043-1.5-.136-.352-.07-.639-.324-.753-.664l-1-3c-.107-.322-.044-.676.168-.941l3.934-4.917.787-1.574-.91-3.642 1.94-.484 1 4c.058.231.031.476-.075.689l-.639 1.278c.757.76 1.748 2.323 1.748 5.275.063 1.185-.43 2.331-1.333 3.1-.975.709-2.162 1.067-3.367 1.016zm-.546-2.025c.92.134 1.858-.057 2.651-.542.428-.396.648-.968.595-1.549.08-1.243-.231-2.479-.89-3.536l-2.989 3.736z"/><path d="m33 39c-.167 0-.332-.042-.479-.122l-11-6c-.485-.265-.663-.872-.399-1.357.077-.142.188-.262.322-.352.834-.56 2.556-2.069 2.556-3.169 0-1.387-1.323-3.68-1.833-4.445l1.665-1.11c.222.333 2.168 3.317 2.168 5.555 0 1.538-1.2 2.946-2.2 3.846l9.331 5.09 3.621-.906.486 1.94-4 1c-.078.02-.158.03-.238.03z"/><path d="m44 53c-3.87 0-5.225-3.357-6.214-5.808-.378-.938-.849-2.106-1.233-2.3-1.448-.58-2.993-.883-4.553-.892v-2c1.87.007 3.721.381 5.447 1.1 1.061.531 1.586 1.832 2.194 3.338 1.077 2.673 2.02 4.562 4.359 4.562 4.828 0 9.388 0 14-4.422l1.384 1.443c-5.192 4.979-10.373 4.979-15.384 4.979z"/><path d="m20 45c-7.22 0-16.177-5.916-16.555-6.168l1.11-1.664c.087.059 8.834 5.832 15.445 5.832z"/><path d="m17.783 47.977c-5.68-1.288-11.158-3.343-16.283-6.109l1-1.736c4.956 2.652 10.243 4.633 15.721 5.891z"/><path d="m5.87 47.358c-.203-1.379-.199-2.78.013-4.158.165-1.202.538-2.365 1.1-3.44.111-.2.169-.29.169-.29l1.7 1.054-.119.2c-.446.87-.741 1.809-.872 2.778-.181 1.184-.184 2.388-.009 3.572z"/><path d="m8.886 48.243c-.179-1.294-.112-2.61.2-3.879.271-1.327 1.092-2.477 2.26-3.164.122-.068.25-.123.384-.163l.54 1.926c-.66.444-1.111 1.136-1.252 1.919-.245 1.027-.294 2.09-.144 3.135z"/><path d="m12.634 49.079c-.325-1.13-.4-2.317-.219-3.479.205-1.234.818-2.364 1.741-3.208.106-.098.222-.185.346-.259l1 1.734c-.593.55-.985 1.283-1.114 2.081-.129.874-.067 1.766.182 2.614z"/></g></svg>